<svg viewbox="0 0 512 512" xmlns="http://www.w3.org/2000/svg" width="512" height="512"><path d="M502.6,124.9L261.2,4.2c-3.3-1.6-7.1-1.6-10.4,0L9.4,124.9c-4,2-6.4,6-6.4,10.4v241.4c0,4.5,2.4,8.5,6.4,10.5l241.4,120.7 c1.6,0.8,3.4,1.2,5.2,1.2c1.8,0,3.6-0.4,5.2-1.2l241.4-120.7c4-2,6.5-6,6.4-10.4V135.3C509,130.9,506.5,126.9,502.6,124.9z M471.4,135.3L256,243l-60.8-30.4l208.9-111L471.4,135.3z M126.2,178.1l208.9-111l43.4,21.7l-208.9,111L126.2,178.1z M100.8,284.8 h29.7l31.1,31.1c2.2,2.2,5.1,3.4,8.2,3.4c3.1,0,6-1.2,8.2-3.4c2.2-2.2,3.4-5.1,3.4-8.2v-76l63,31.5v215.4L26.2,369.5V154.1l63,31.5 v87.6C89.2,279.6,94.4,284.8,100.8,284.8z M158.2,279.6L143.5,265c-2.2-2.2-5.1-3.4-8.2-3.4h-22.9v-64.4l45.7,22.9V279.6z M40.6,135.3L256,27.6l53.6,26.7l-208.9,111L40.6,135.3z M485.8,154.1v215.4L267.6,478.6V263.2L485.8,154.1z"/></svg>